<?xml version="1.0" encoding="UTF-8" standalone="no"?>
<!-- Generator: Adobe Illustrator 15.0.0, SVG Export Plug-In . SVG Version: 6.00 Build 0)  -->

<svg
   xmlns:dc="http://purl.org/dc/elements/1.1/"
   xmlns:cc="http://creativecommons.org/ns#"
   xmlns:rdf="http://www.w3.org/1999/02/22-rdf-syntax-ns#"
   xmlns:svg="http://www.w3.org/2000/svg"
   xmlns="http://www.w3.org/2000/svg"
   xmlns:sodipodi="http://sodipodi.sourceforge.net/DTD/sodipodi-0.dtd"
   xmlns:inkscape="http://www.inkscape.org/namespaces/inkscape"
   version="1.1"
   id="Calque_1"
   x="0px"
   y="0px"
   width="2050px"
   height="250px"
   viewBox="0 0 2050 250"
   enable-background="new 0 0 2050 250"
   xml:space="preserve"
   inkscape:version="0.91 r13725"
   sodipodi:docname="logo.svg"><metadata
     id="metadata43"><rdf:RDF><cc:Work
         rdf:about=""><dc:format>image/svg+xml</dc:format><dc:type
           rdf:resource="http://purl.org/dc/dcmitype/StillImage" /><dc:title></dc:title></cc:Work></rdf:RDF></metadata><defs
     id="defs41" /><sodipodi:namedview
     pagecolor="#ffffff"
     bordercolor="#666666"
     borderopacity="1"
     objecttolerance="10"
     gridtolerance="10"
     guidetolerance="10"
     inkscape:pageopacity="0"
     inkscape:pageshadow="2"
     inkscape:window-width="1531"
     inkscape:window-height="810"
     id="namedview39"
     showgrid="false"
     inkscape:zoom="0.37658537"
     inkscape:cx="994.01564"
     inkscape:cy="14.103545"
     inkscape:window-x="120"
     inkscape:window-y="20"
     inkscape:window-maximized="0"
     inkscape:current-layer="Calque_1" /><path
     fill="#172A51"
     d="M220.05,131.309c0,58.832-47.695,106.527-106.527,106.527C54.695,237.836,7,190.141,7,131.309  C7,72.477,54.695,24.781,113.522,24.781C172.354,24.781,220.05,72.477,220.05,131.309z"
     id="path3" /><path
     fill="#FFFFFF"
     d="M111.703,164.896c0.788,0,1.193,0.396,1.193,1.194v5.566c0,0.791-0.405,1.198-1.193,1.198H58.786  c-0.792,0-1.195-0.407-1.195-1.198V82.805c0-0.793,0.403-1.191,1.195-1.191h6.368c0.8,0,1.194,0.398,1.194,1.191v82.091H111.703  L111.703,164.896z"
     id="path5" /><path
     fill="#FFFFFF"
     d="M168.727,172.195c-4.652,1.453-9.292,1.984-14.329,1.984c-18.302,0-29.168-12.734-29.168-33.158  c0-20.292,11-33.021,29.035-33.021c14.986,0,24.004,7.297,24.004,19.629c0,9.283-5.836,14.721-17.769,16.715l-25.861,4.238  c1.724,11.141,8.889,17.639,19.759,17.639c4.505,0,8.625-0.533,12.331-1.723l3.987-1.191c0.792-0.137,1.324,0.129,1.587,0.928  l1.595,5.302c0.125,0.799-0.141,1.323-0.925,1.461L168.727,172.195z M159.035,137.045c7.027-1.189,10.615-4.246,10.615-9.283  c0-7.424-5.704-11.803-15.509-11.803c-12.336,0-19.77,8.355-20.166,25.332L159.035,137.045z"
     id="path7" /><path
     fill="#FF1C3C"
     d="M367.48,75.281c1.672,0,2.508,0.836,2.508,2.5V89.18c0,1.672-0.836,2.508-2.508,2.508h-30.866v84.268  c0,11.959,5.278,18.635,14.739,18.635c2.227,0,4.728-0.555,7.228-1.387c1.396-0.556,2.5,0,3.337,1.387l4.73,10.291  c0.559,1.394,0.277,2.781-1.11,3.336c-3.895,1.949-9.18,3.066-14.185,3.066c-20.579,0-32.818-12.8-32.818-35.048V91.688h-12.793  c-1.673,0-2.5-0.836-2.5-2.508V77.781c0-1.664,0.827-2.5,2.5-2.5h12.793V41.904c0-1.391,0.552-2.502,1.941-2.781l13.353-4.447  c1.673-0.555,2.785,0.273,2.785,2.219v38.387L367.48,75.281L367.48,75.281z"
     id="path9" /><path
     fill="#FF1C3C"
     d="M472.316,86.684c0,1.664-0.836,2.496-2.5,2.496c-29.76,1.398-46.723,26.424-46.723,73.427v43.388  c0,1.668-0.836,2.504-2.508,2.504h-13.071c-1.668,0-2.5-0.836-2.5-2.504V77.781c0-1.664,0.832-2.5,2.5-2.5h8.622  c1.668,0,2.504,0.836,2.785,2.5l1.944,20.861c0.556,2.223,2.228,2.777,3.614,0.555c10.567-16.687,24.196-25.865,45.335-26.697  c1.664,0,2.5,0.832,2.5,2.5L472.316,86.684L472.316,86.684z"
     id="path11" /><path
     fill="#FF1C3C"
     d="M516.254,76.672c8.065-2.508,18.074-4.172,29.756-4.172c33.932,0,55.065,20.297,55.065,53.949v79.545  c0,1.668-0.828,2.504-2.5,2.504h-8.618c-1.672,0-2.508-0.836-2.784-2.504l-0.832-12.514c-0.836-3.617-2.785-3.336-5.563-0.277  c-9.453,11.957-23.642,18.08-44.222,18.08c-28.096,0-44.495-15.303-44.495-40.055c0-24.197,16.962-40.607,48.945-40.881h41.995  v-3.617c0-23.644-13.35-37.271-37.27-37.271c-9.734,0-18.355,1.117-25.311,3.336l-9.734,2.785c-1.665,0.557-2.778,0-3.333-1.668  l-3.059-10.848c-0.562-1.668,0-2.785,1.664-3.34L516.254,76.672z M541.006,145.918c-21.14,0-30.874,9.736-30.874,24.197  c0,15.576,10.017,24.756,27.813,24.756c28.645,0,45.055-16.41,45.055-45.336v-3.617H541.006z"
     id="path13" /><path
     fill="#FF1C3C"
     d="M656.683,94.75c0.836,2.502,2.508,2.502,4.172,0.275C671.426,80.008,686.169,72.5,705.357,72.5  c30.593,0,49.23,20.578,49.23,53.949v79.545c0,1.668-0.841,2.504-2.509,2.504h-13.07c-1.672,0-2.504-0.836-2.504-2.504v-78.146  c0-24.197-12.239-38.667-32.819-38.667c-27.533,0-43.663,20.588-43.663,55.902v60.912c0,1.668-0.832,2.504-2.504,2.504h-13.071  c-1.668,0-2.504-0.836-2.504-2.504V77.781c0-1.664,0.836-2.5,2.504-2.5h8.618c1.672,0,2.508,0.836,2.508,2.5L656.683,94.75z"
     id="path15" /><path
     fill="#FF1C3C"
     d="M822.43,143.141c-20.58-5.285-30.034-16.129-30.034-34.49c0-22.525,17.521-36.15,47.559-36.15  c12.235,0,24.196,1.664,32.537,4.172l10.85,3.336c1.672,0.555,2.227,1.668,1.672,3.336l-3.062,10.846  c-0.559,1.672-1.672,2.227-3.336,1.672l-10.57-3.064c-7.51-2.219-18.079-3.617-27.814-3.617c-18.908,0-29.752,7.791-29.752,19.471  c0,9.734,5.281,15.857,17.798,19.471l32.26,9.18c21.689,5.562,31.15,17.244,31.15,35.318c0,24.192-18.634,38.664-50.62,38.664  c-16.407,0-30.588-2.229-41.995-6.402l-7.509-2.502c-1.672-0.559-2.227-1.668-1.672-3.336l3.897-11.129  c0.557-1.387,1.673-1.94,3.061-1.387l7.229,2.5c9.454,3.34,22.248,5.562,36.987,5.562c20.58,0,32.541-8.34,32.541-21.971  c0-10.289-5.84-16.406-18.634-20.305L822.43,143.141z"
     id="path17" /><path
     fill="#FF1C3C"
     d="M932.831,51.084c0-26.143,14.462-42,38.383-42c5.001,0,9.454,0.834,14.738,3.062l4.449,1.67  c1.392,0.555,1.946,1.672,1.392,3.059l-4.173,11.121c-0.555,1.391-1.668,1.949-3.059,1.391l-3.621-1.391  c-3.329-1.387-6.11-1.945-9.728-1.945c-12.799,0-20.307,9.457-20.307,25.033v24.197h30.869c1.672,0,2.508,0.836,2.508,2.5V89.18  c0,1.672-0.836,2.508-2.508,2.508h-30.869v114.307c0,1.668-0.829,2.504-2.501,2.504h-13.07c-1.673,0-2.505-0.836-2.505-2.504V91.688  h-12.794c-1.664,0-2.5-0.836-2.5-2.508V77.781c0-1.664,0.836-2.5,2.5-2.5h12.794L932.831,51.084L932.831,51.084z"
     id="path19" /><path
     fill="#FF1C3C"
     d="M1127.226,141.746c0,42.836-23.088,69.537-60.629,69.537c-37.55,0-60.63-26.701-60.63-69.537  c0-42.549,23.08-69.246,60.63-69.246C1104.138,72.5,1127.226,99.197,1127.226,141.746z M1024.043,141.746  c0,33.1,15.854,52.844,42.554,52.844c26.697,0,42.831-19.744,42.831-52.844c0-32.814-16.134-52.566-42.831-52.566  C1039.898,89.18,1024.043,108.932,1024.043,141.746z"
     id="path21" /><path
     fill="#FF1C3C"
     d="M1230.394,86.684c0,1.664-0.832,2.496-2.504,2.496c-29.76,1.398-46.722,26.424-46.722,73.427v43.388  c0,1.668-0.837,2.504-2.509,2.504h-13.071c-1.664,0-2.5-0.836-2.5-2.504V77.781c0-1.664,0.836-2.5,2.5-2.5h8.625  c1.664,0,2.5,0.836,2.781,2.5l1.946,20.861c0.555,2.223,2.228,2.777,3.617,0.555c10.562-16.687,24.196-25.865,45.331-26.697  c1.672,0,2.504,0.832,2.504,2.5L1230.394,86.684L1230.394,86.684z"
     id="path23" /><path
     fill="#172A51"
     d="M1462.336,76.672c8.062-2.508,18.071-4.172,29.753-4.172c33.932,0,55.073,20.297,55.073,53.949v79.545  c0,1.668-0.836,2.504-2.508,2.504h-8.618c-1.672,0-2.504-0.836-2.78-2.504l-0.836-12.514c-0.837-3.617-2.782-3.336-5.563-0.277  c-9.454,11.957-23.642,18.08-44.218,18.08c-28.092,0-44.499-15.303-44.499-40.055c0-24.197,16.962-40.607,48.948-40.881h41.994  v-3.617c0-23.644-13.352-37.271-37.268-37.271c-9.735,0-18.36,1.117-25.314,3.336l-9.73,2.785c-1.668,0.557-2.777,0-3.332-1.668  l-3.062-10.848c-0.555-1.668,0-2.785,1.664-3.34L1462.336,76.672z M1487.088,145.918c-21.143,0-30.869,9.736-30.869,24.197  c0,15.576,10.009,24.756,27.807,24.756c28.643,0,45.059-16.41,45.059-45.336v-3.617H1487.088z"
     id="path25" /><path
     fill="#172A51"
     d="M1643.1,75.281c1.665,0,2.501,0.836,2.501,2.5V89.18c0,1.672-0.836,2.508-2.501,2.508h-30.869v84.268  c0,11.959,5.281,18.635,14.735,18.635c2.227,0,4.728-0.555,7.23-1.387c1.396-0.556,2.504,0,3.34,1.387l4.728,10.291  c0.555,1.394,0.281,2.781-1.109,3.336c-3.897,1.949-9.181,3.066-14.188,3.066c-20.579,0-32.814-12.8-32.814-35.048V91.688h-12.79  c-1.672,0-2.508-0.836-2.508-2.508V77.781c0-1.664,0.836-2.5,2.508-2.5h12.79V41.904c0-1.391,0.555-2.502,1.945-2.781l13.353-4.447  c1.664-0.555,2.781,0.273,2.781,2.219v38.387L1643.1,75.281L1643.1,75.281z"
     id="path27" /><path
     fill="#172A51"
     d="M1760.451,207.107c-9.729,3.059-19.466,4.176-30.032,4.176c-38.378,0-61.185-26.701-61.185-69.537  c0-42.549,23.079-69.246,60.91-69.246c31.424,0,50.332,15.293,50.332,41.158c0,19.471-12.234,30.869-37.269,35.045l-54.23,8.9  c3.617,23.36,18.635,36.985,41.44,36.985c9.458,0,18.078-1.108,25.86-3.612l8.35-2.504c1.668-0.277,2.776,0.276,3.34,1.944  l3.336,11.129c0.272,1.668-0.281,2.777-1.949,3.06L1760.451,207.107z M1740.154,133.406c14.739-2.504,22.251-8.898,22.251-19.467  c0-15.578-11.961-24.76-32.541-24.76c-25.869,0-41.439,17.525-42.275,53.125L1740.154,133.406z"
     id="path29" /><path
     fill="#172A51"
     d="M1912.573,189.027c-0.836-2.5-2.5-2.5-4.172-0.277c-10.571,15.02-25.313,22.533-44.499,22.533  c-30.593,0-49.227-20.584-49.227-53.961V77.781c0-1.664,0.836-2.5,2.5-2.5h13.07c1.673,0,2.509,0.836,2.509,2.5v78.154  c0,24.192,12.234,38.653,32.814,38.653c27.533,0,43.667-20.575,43.667-55.901V77.781c0-1.664,0.836-2.5,2.5-2.5h13.071  c1.672,0,2.508,0.836,2.508,2.5v128.213c0,1.668-0.836,2.504-2.508,2.504h-8.618c-1.672,0-2.5-0.836-2.5-2.504L1912.573,189.027z"
     id="path31" /><path
     fill="#172A51"
     d="M2037.989,86.684c0,1.664-0.836,2.496-2.5,2.496c-29.76,1.398-46.729,26.424-46.729,73.427v43.388  c0,1.668-0.836,2.504-2.501,2.504h-13.071c-1.672,0-2.508-0.836-2.508-2.504V77.781c0-1.664,0.836-2.5,2.508-2.5h8.618  c1.672,0,2.5,0.836,2.781,2.5l1.952,20.861c0.556,2.223,2.221,2.777,3.61,0.555c10.57-16.687,24.196-25.865,45.339-26.697  c1.664,0,2.5,0.832,2.5,2.5V86.684z"
     id="path33" /><path
     fill="#BA5275"
     d="M1248.039,238.408c-3.646,0-6.604-2.955-6.604-6.605V12.609c0-3.654,2.959-6.609,6.604-6.609  c3.654,0,6.606,2.955,6.606,6.609v219.193C1254.646,235.453,1251.694,238.408,1248.039,238.408z"
     id="path35" /><path
     fill="#172A51"
     d="M1359.156,72.5c-18.637,0-32.81,7.227-44.49,25.307c-1.944,2.227-4.026,2.781-5.977-0.281  c-6.117-13.627-18.264-25.025-38.008-25.025c-0.902,0,1.496,0.096-2.504,0.133v16.6c0-0.008,0.399-0.053,0.729-0.053  c18.633,0,29.271,14.471,29.271,38.387v78.428c0,1.668,1.203,1.118,2.871,1.118h13.07c1.672,0,3.059,0.55,3.059-1.118v-60.912  c0-32.533,10.916-55.902,40.113-55.902c18.911,0,27.887,14.471,27.887,38.667v78.146c0,1.668,2.917,1.118,4.589,1.118h13.071  c1.672,0,1.34,0.55,1.34-1.118v-79.545C1404.179,93.078,1387.793,72.5,1359.156,72.5z"
     id="path37" /></svg>