<svg id="Calque_1" data-name="Calque 1" xmlns="http://www.w3.org/2000/svg" viewBox="0 0 36 36"><defs><style>.cls-1{fill:#57227e;}</style></defs><title>icon_pin_violet</title><path class="cls-1" d="M16.79,35.17a1.51,1.51,0,0,0,2.42,0l.08-.11C26.73,25,30.5,17.46,30.5,12.81a12.5,12.5,0,0,0-25,0C5.5,17.46,9.27,25,16.71,35.06ZM18,3.31a9.51,9.51,0,0,1,9.5,9.5c0,2.63-1.68,8-9.5,18.92C10.18,20.84,8.5,15.44,8.5,12.81A9.51,9.51,0,0,1,18,3.31Z"/><path class="cls-1" d="M18.06,19.5h0a6.64,6.64,0,0,0,6.59-6.69A6.69,6.69,0,1,0,18,19.5Zm-3.75-6.69a3.69,3.69,0,1,1,7.38,0,3.63,3.63,0,0,1-1,2.59,3.68,3.68,0,0,1-2.58,1.09L18,18l0-1.5h0A3.69,3.69,0,0,1,14.31,12.81Z"/></svg>