<svg id="Calque_1" data-name="Calque 1" xmlns="http://www.w3.org/2000/svg" viewBox="0 0 36 36"><defs><style>.cls-1{fill:#fff;}</style></defs><title>icon_download_blanc</title><path class="cls-1" d="M32.2,31.6H4.5a1.5,1.5,0,0,0,0,3H32.2a1.5,1.5,0,0,0,0-3Z"/><path class="cls-1" d="M18.1.5A1.5,1.5,0,0,0,16.6,2V24.33l-6.54-6.54a1.5,1.5,0,0,0-2.12,2.12L17,29a1.51,1.51,0,0,0,.49.33h0a1.46,1.46,0,0,0,.55.11,1.62,1.62,0,0,0,.54-.1h0a1.75,1.75,0,0,0,.48-.32h0l9.09-9a1.5,1.5,0,1,0-2.1-2.14L19.6,24.36V2A1.5,1.5,0,0,0,18.1.5Z"/></svg>