<svg id="Calque_1" data-name="Calque 1" xmlns="http://www.w3.org/2000/svg" viewBox="0 0 36 36"><defs><style>.cls-1{fill:#3d3a39;}</style></defs><title>icon_github</title><path class="cls-1" d="M18.32,5a13.31,13.31,0,0,0-4.17,26c.67.17.84-.33.84-.67V27.8c-3.33.67-4.16-.83-4.49-1.49a6.59,6.59,0,0,0-1.34-1.84c-.5-.16-1.16-.83,0-.83a2.69,2.69,0,0,1,2,1.34A2.86,2.86,0,0,0,15,26.14a3.69,3.69,0,0,1,.83-1.83c-3-.33-6-1.5-6-6.49a5.45,5.45,0,0,1,1.33-3.66,4.16,4.16,0,0,1,.17-3.5S12.49,10.33,15,12a11.39,11.39,0,0,1,3.33-.5,20.76,20.76,0,0,1,3.33.33c2.49-1.67,3.66-1.33,3.66-1.33A4.88,4.88,0,0,1,25.47,14a5.48,5.48,0,0,1,1.34,3.66c0,5.16-3.16,6.33-6,6.66a2.76,2.76,0,0,1,.83,2.33V30.3c0,.33.16.83,1,.67A13.35,13.35,0,0,0,18.32,5Z"/></svg>