<svg id="Calque_1" data-name="Calque 1" xmlns="http://www.w3.org/2000/svg" viewBox="0 0 36 36"><defs><style>.cls-1{fill:#3d3a39;}</style></defs><title>icon_user</title><path class="cls-1" d="M27.7,20.75c-.64-.17-1.29-.35-2-.62a5.46,5.46,0,0,1-3-2.51,10.61,10.61,0,0,0,2.91-7.52c0-5.29-3.43-9.6-7.66-9.6S10.28,4.81,10.28,10a10.17,10.17,0,0,0,2.93,7.57,5.36,5.36,0,0,1-3,2.53c-.72.26-1.38.44-2,.61-2.36.63-4.58,1.23-5.63,5.64a1.5,1.5,0,0,0,.33,1.33A19.59,19.59,0,0,0,17.7,34.5h.24A20.23,20.23,0,0,0,33,27.73a1.52,1.52,0,0,0,.34-1.34C32.28,22,30.05,21.38,27.7,20.75Zm-6.81-.44A4.44,4.44,0,0,1,18,21.78a4.5,4.5,0,0,1-2.95-1.57,8.23,8.23,0,0,0,.62-.92,6.19,6.19,0,0,0,2.17.41h.05a6.27,6.27,0,0,0,2.24-.42A7.32,7.32,0,0,0,20.89,20.31Zm-3-16.81c2.48,0,4.66,3.08,4.66,6.6s-2.18,6.6-4.67,6.6a3.29,3.29,0,0,1-2-.64,7.22,7.22,0,0,1-2.67-6C13.28,6.52,15.41,3.5,17.93,3.5Zm0,28A16.6,16.6,0,0,1,5.66,26.33c.6-2,1.37-2.17,3.29-2.68.66-.18,1.41-.38,2.22-.68a8,8,0,0,0,1.68-.78A7.43,7.43,0,0,0,18,24.78a7.38,7.38,0,0,0,5.13-2.52,7.81,7.81,0,0,0,1.49.7c.84.31,1.6.51,2.26.69,1.91.51,2.69.72,3.28,2.67A17.24,17.24,0,0,1,17.92,31.5Z"/></svg>