<svg id="Calque_1" data-name="Calque 1" xmlns="http://www.w3.org/2000/svg" viewBox="0 0 36 36"><defs><style>.cls-1{fill:#3d3a39;}</style></defs><title>icon_article</title><path class="cls-1" d="M31,35.27a2.48,2.48,0,0,0,1.7-.89,2.44,2.44,0,0,0,.57-1.8V10.79a1.87,1.87,0,0,0-.58-1.43q-4.07-4-8.15-8.13a6.14,6.14,0,0,0-.72-.54L23.72.62H5L4.81.69a2.48,2.48,0,0,0-2,2.54V32.55a3.23,3.23,0,0,0,0,.44,2.49,2.49,0,0,0,.88,1.7,2.45,2.45,0,0,0,1.59.59H30.56A2.06,2.06,0,0,0,31,35.27ZM24.79,5.63,28.26,9.1H24.79ZM6.19,3.53a1.09,1.09,0,0,1,.26,0H21.91v6.81a1.41,1.41,0,0,0,0,.41,1.45,1.45,0,0,0,.56,1,1.38,1.38,0,0,0,1,.28h6.9V31.62a.74.74,0,0,1,0,.21.72.72,0,0,1-.28.47.76.76,0,0,1-.59.12H6.32a.68.68,0,0,1-.46-.25.7.7,0,0,1-.16-.54V4.31A.7.7,0,0,1,6.19,3.53Z"/><path class="cls-1" d="M10.37,24.64a2.12,2.12,0,0,0,.43,0H25.35a2.36,2.36,0,0,0,.37,0,1.43,1.43,0,0,0,.72-2.46,1.42,1.42,0,0,0-1-.37H10.68A1.45,1.45,0,0,0,9.21,23,1.42,1.42,0,0,0,10.37,24.64Z"/><path class="cls-1" d="M26.35,26.35a1.35,1.35,0,0,0-1-.3H10.81a1.71,1.71,0,0,0-.32,0,1.45,1.45,0,0,0,.13,2.88H25.29a1.93,1.93,0,0,0,.34,0,1.44,1.44,0,0,0,1.26-1.6A1.43,1.43,0,0,0,26.35,26.35Z"/><path class="cls-1" d="M10.75,17.56h-.23a1.44,1.44,0,0,0-1,.5,1.47,1.47,0,0,0-.33,1.05,1.43,1.43,0,0,0,1.41,1.31H25.46a1.42,1.42,0,0,0,.24-2.83,2.63,2.63,0,0,0-.48,0H10.75Z"/><path class="cls-1" d="M10.73,16.2h6.43a1.44,1.44,0,0,0,.71-2.56,1.39,1.39,0,0,0-1-.3H10.51a1.47,1.47,0,0,0-1,.51,1.43,1.43,0,0,0,1.19,2.35Z"/></svg>