<svg id="Calque_1" data-name="Calque 1" xmlns="http://www.w3.org/2000/svg" viewBox="0 0 36 36"><title>icon_list</title><path d="M25,10.5H9.4a1,1,0,1,1,0-2H25a1,1,0,0,1,0,2Z"/><path d="M29,18.7H9.4a1,1,0,0,1,0-2H29a1,1,0,0,1,0,2Z"/><path d="M32.4,26.5H9.4a1,1,0,1,1,0-2h23a1,1,0,0,1,0,2Z"/><circle id="Ellipse_233" data-name="Ellipse 233" cx="4.5" cy="9.5" r="1.5"/><circle id="Ellipse_234" data-name="Ellipse 234" cx="4.5" cy="17.7" r="1.5"/><circle id="Ellipse_235" data-name="Ellipse 235" cx="4.5" cy="25.5" r="1.5"/></svg>