<svg id="Calque_1" data-name="Calque 1" xmlns="http://www.w3.org/2000/svg" viewBox="0 0 36 36"><defs><style>.cls-1{fill:#3d3a39;}</style></defs><title>icon_list</title><path class="cls-1" d="M8.18,7.89H25.69a1.5,1.5,0,0,0,0-3H8.18a1.5,1.5,0,0,0,0,3Z"/><path class="cls-1" d="M8.18,19.1h22a1.5,1.5,0,0,0,0-3h-22a1.5,1.5,0,0,0,0,3Z"/><path class="cls-1" d="M34,26.85H8.18a1.5,1.5,0,0,0,0,3H34a1.5,1.5,0,0,0,0-3Z"/><path class="cls-1" d="M2.68,8.07A1.68,1.68,0,1,0,1,6.39,1.69,1.69,0,0,0,2.68,8.07Z"/><path class="cls-1" d="M2.68,19.28A1.69,1.69,0,1,0,1,17.6,1.69,1.69,0,0,0,2.68,19.28Z"/><path class="cls-1" d="M4.37,28.35A1.69,1.69,0,1,0,2.68,30,1.69,1.69,0,0,0,4.37,28.35Z"/></svg>