<svg id="Calque_1" data-name="Calque 1" xmlns="http://www.w3.org/2000/svg" viewBox="0 0 36 36"><defs><style>.cls-1{fill:#57227e;}</style></defs><title>icon_map_violet</title><path class="cls-1" d="M32,2.5H22.33a1.12,1.12,0,0,0-.32,0l-.09,0-.22.08,0,0-9,4.5-9-4.5A1.49,1.49,0,0,0,1.5,4V29.08a1.49,1.49,0,0,0,.83,1.34L12,35.25a1.48,1.48,0,0,0,1.34,0l9.35-4.67H32a1.5,1.5,0,0,0,1.5-1.5V4A1.5,1.5,0,0,0,32,2.5ZM14.17,9.76l6.66-3.33V28.15l-6.66,3.33ZM4.5,6.43l6.67,3.33V31.48L4.5,28.15Zm26,21.15H23.83V5.5H30.5Z"/></svg>