<svg id="Calque_1" data-name="Calque 1" xmlns="http://www.w3.org/2000/svg" viewBox="0 0 36 36"><defs><style>.cls-1{fill:#fff;}</style></defs><title>icon_link_blanc</title><path class="cls-1" d="M11.09,35.07a10.22,10.22,0,0,0,5.81-3l4.8-4.8a9.22,9.22,0,0,0,2.55-6,8,8,0,0,0-2.08-6,6.88,6.88,0,0,0-3.37-2.34,1.5,1.5,0,1,0-.92,2.85,4,4,0,0,1,2,1.39l.13.15a5,5,0,0,1,1.27,3.83,6.12,6.12,0,0,1-1.67,4L14.78,30a7.28,7.28,0,0,1-4.06,2.14,5.33,5.33,0,0,1-4.51-1.72c-4-4.11.25-8.45.29-8.49L11.4,17a1.5,1.5,0,1,0-2.12-2.13l-4.9,4.9c-2.59,2.59-4.8,8.11-.3,12.73a8.34,8.34,0,0,0,6,2.65C10.44,35.13,10.78,35.1,11.09,35.07Z"/><path class="cls-1" d="M32.6,4.15a8.14,8.14,0,0,0-7-2.59,10.22,10.22,0,0,0-5.76,3l-4.7,4.7a9.27,9.27,0,0,0-2.56,6.56,7.6,7.6,0,0,0,2.12,5.43A7.91,7.91,0,0,0,18,23.53a1.52,1.52,0,0,0,.51.09,1.5,1.5,0,0,0,.51-2.91A4.9,4.9,0,0,1,17,19.26l-.12-.13a4.65,4.65,0,0,1-1.26-3.35,6.19,6.19,0,0,1,1.68-4.4L22,6.68a7.15,7.15,0,0,1,4-2.14,5.24,5.24,0,0,1,4.46,1.74c3.26,3.25.81,7.16-.3,8.27l-4.8,4.8a1.5,1.5,0,0,0,2.12,2.13l4.8-4.8C35,14,36.82,8.37,32.6,4.15Z"/></svg>