<svg id="Calque_1" data-name="Calque 1" xmlns="http://www.w3.org/2000/svg" viewBox="0 0 36 36"><defs><style>.cls-1{fill:#57227e;}</style></defs><title>icon_podcast_violet</title><path class="cls-1" d="M9.13,13.06a1.51,1.51,0,0,0-1.51,1.5V18a10.56,10.56,0,0,0,9.05,10.44V32H11.5a1.5,1.5,0,0,0,0,3H25a1.5,1.5,0,0,0,0-3H19.67V28.39a10.54,10.54,0,0,0,9-10.44V14.56a1.5,1.5,0,0,0-1.5-1.5h0a1.5,1.5,0,0,0-1.5,1.5V18a7.54,7.54,0,0,1-15.08,0V14.56A1.5,1.5,0,0,0,9.13,13.06Z"/><path class="cls-1" d="M18.17,24h0a6,6,0,0,0,6-6V6.65a6,6,0,1,0-12,0V18a6,6,0,0,0,6,6Zm-3-6V6.65a3,3,0,1,1,6,0V18a3,3,0,0,1-3,3h0A3,3,0,0,1,15.15,18Z"/></svg>