<svg id="Calque_1" data-name="Calque 1" xmlns="http://www.w3.org/2000/svg" viewBox="0 0 36 36"><defs><style>.cls-1{fill:#57227e;}</style></defs><title>icon_play_violet</title><path class="cls-1" d="M28.2,17.65a1.5,1.5,0,0,0-.64-1.23L13.39,6.57a1.35,1.35,0,0,0-.26-.15l-.15,0-.13,0a1.53,1.53,0,0,0-1.69.85h0c0,.07-.05.14-.07.2l0,.09,0,.24v0l-.33,19.7h0a1.23,1.23,0,0,0,0,.19.45.45,0,0,0,0,.11.65.65,0,0,0,0,.13.83.83,0,0,0,0,.15.59.59,0,0,0,0,.08,1,1,0,0,0,.1.18h0l0,0a1.29,1.29,0,0,0,.19.21.27.27,0,0,0,.08.07,1.33,1.33,0,0,0,.19.14l.09.05a1.14,1.14,0,0,0,.26.09l0,0a1.17,1.17,0,0,0,.32,0h0a1.67,1.67,0,0,0,.39,0l.09,0a2.37,2.37,0,0,0,.36-.17h0l14.5-9.84A1.5,1.5,0,0,0,28.2,17.65Zm-14.45,7,.23-14,10.07,7Z"/></svg>