<svg id="Calque_1" data-name="Calque 1" xmlns="http://www.w3.org/2000/svg" viewBox="0 0 36 36"><defs><style>.cls-1{fill:#57227e;}</style></defs><title>icon_dataviz_violet</title><path class="cls-1" d="M33.84,31.49h-.76V13a2.32,2.32,0,0,0-2.15-2.15H25.56A2.32,2.32,0,0,0,23.41,13V31.49H22.08V7.42a2.35,2.35,0,0,0-2.34-2.35h-5a2.35,2.35,0,0,0-2.34,2.35V31.49H11.08V18.78a2.13,2.13,0,0,0-1.91-2.23H4.5V3a1.5,1.5,0,0,0-3,0V33A1.5,1.5,0,0,0,3,34.49H33.84a1.5,1.5,0,0,0,0-3Zm-29.34,0V19.54H8.08v12Zm10.91,0V8.07h3.67V31.49Zm11,0V13.81h3.67V31.49Z"/></svg>