<svg id="Calque_1" data-name="Calque 1" xmlns="http://www.w3.org/2000/svg" viewBox="0 0 36 36"><defs><style>.cls-1{fill:#57227e;}</style></defs><title>icon_twittr_violet</title><path class="cls-1" d="M30.82,8.41A12.4,12.4,0,0,1,27.6,9.67,5,5,0,0,0,23.83,8a5.26,5.26,0,0,0-5.18,5.17,2.83,2.83,0,0,0,.14,1.12A14.45,14.45,0,0,1,8.17,8.84a5.36,5.36,0,0,0-.7,2.65,5.54,5.54,0,0,0,2.24,4.34,4.78,4.78,0,0,1-2.38-.7,5.11,5.11,0,0,0,4.19,5,4.1,4.1,0,0,1-1.4.14,2.29,2.29,0,0,1-1-.14A5.29,5.29,0,0,0,14,23.8,10.57,10.57,0,0,1,7.61,26a3.85,3.85,0,0,1-1.26-.15,13.19,13.19,0,0,0,8,2.52A14.55,14.55,0,0,0,29,14V13a11.32,11.32,0,0,0,2.52-2.65,11.6,11.6,0,0,1-2.94.83A5.44,5.44,0,0,0,30.82,8.41Z"/></svg>