<svg id="Calque_1" data-name="Calque 1" xmlns="http://www.w3.org/2000/svg" viewBox="0 0 36 36"><defs><style>.cls-1{fill:none;stroke:#1d1d1b;stroke-linejoin:round;stroke-width:2px;}</style></defs><title>pictogrammes</title><g id="Groupe_340" data-name="Groupe 340"><path id="Tracé_281" data-name="Tracé 281" class="cls-1" d="M23.6,11.5c0,4.1-2.6,7.5-5.7,7.5a4.41,4.41,0,0,1-2.7-.9,8,8,0,0,1-3-6.6c0-4.1,2.6-7.5,5.7-7.5S23.6,7.4,23.6,11.5Z"/><g id="Groupe_339" data-name="Groupe 339"><path id="Tracé_284" data-name="Tracé 284" class="cls-1" d="M15.2,18.1a6.32,6.32,0,0,1-4,4C7.9,23.3,6,22.7,5,26.9a16.8,16.8,0,0,0,12.9,5.8,17.33,17.33,0,0,0,12.9-5.8c-1-4.2-2.9-3.6-6.2-4.8a6.55,6.55,0,0,1-4-4"/></g><path id="Tracé_285" data-name="Tracé 285" class="cls-1" d="M13.2,20.5s2,3.2,4.8,3.2,4.8-3.2,4.8-3.2"/></g></svg>