<svg id="Calque_1" data-name="Calque 1" xmlns="http://www.w3.org/2000/svg" viewBox="0 0 36 36"><title>icon_link</title><g id="Groupe_338" data-name="Groupe 338"><path d="M10.08,34.63a7.93,7.93,0,0,1-5.65-2.51c-4.24-4.35-2.14-9.57.3-12l4.9-4.9a1,1,0,0,1,1.42,0,1,1,0,0,1,0,1.41l-4.9,4.9c-.05.05-4.64,4.74-.29,9.2a5.78,5.78,0,0,0,4.92,1.87,7.71,7.71,0,0,0,4.35-2.28l4.8-4.8a6.65,6.65,0,0,0,1.82-4.38,5.52,5.52,0,0,0-1.42-4.21.39.39,0,0,1-.08-.1A4.55,4.55,0,0,0,18,15.27a1,1,0,1,1,.61-1.91,6.46,6.46,0,0,1,3.14,2.19,7.55,7.55,0,0,1,2,5.67,8.67,8.67,0,0,1-2.4,5.7l-4.8,4.8A9.67,9.67,0,0,1,11,34.57,7.69,7.69,0,0,1,10.08,34.63Z"/><path d="M18.54,23.12a1,1,0,0,1-.34-.06,7.39,7.39,0,0,1-3.09-2.16,7.13,7.13,0,0,1-2-5.09,8.79,8.79,0,0,1,2.41-6.2l4.7-4.7A9.63,9.63,0,0,1,25.7,2.06a7.71,7.71,0,0,1,6.55,2.45c4.19,4.19,2,9.47-.3,11.81l-4.8,4.8a1,1,0,0,1-1.42,0,1,1,0,0,1,0-1.41l4.8-4.8c1.21-1.21,3.85-5.44.3-9A5.71,5.71,0,0,0,26,4a7.68,7.68,0,0,0-4.31,2.28L17,11a6.77,6.77,0,0,0-1.83,4.77,5.11,5.11,0,0,0,1.41,3.7l.08.09a5.45,5.45,0,0,0,2.27,1.6,1,1,0,0,1,.6,1.28A1,1,0,0,1,18.54,23.12Z"/></g></svg>