<svg id="Calque_1" data-name="Calque 1" xmlns="http://www.w3.org/2000/svg" viewBox="0 0 36 36"><defs><style>.cls-1{fill:none;}</style></defs><title>icon_dataviz</title><rect class="cls-1" x="13.6" y="6.8" width="5.1" height="26.1"/><rect class="cls-1" x="3" y="19" width="5" height="13.9"/><rect class="cls-1" x="24.3" y="12.9" width="5.1" height="20"/><path d="M34.8,32.9H31.4V12.63a1.9,1.9,0,0,0-1.8-1.73H24a1.9,1.9,0,0,0-1.73,1.8V32.9H20.7V6.7a1.9,1.9,0,0,0-1.9-1.9H13.5a1.9,1.9,0,0,0-1.9,1.9V32.9H10V18.75A1.66,1.66,0,0,0,8.5,17H3V2A1,1,0,0,0,1,2V33.9a1,1,0,0,0,1,1H34.8a1,1,0,0,0,0-2ZM3,32.9V19H8V32.9Zm10.6,0V6.8h5.1V32.9Zm10.7,0v-20h5.1v20Z"/></svg>