<svg id="Calque_1" data-name="Calque 1" xmlns="http://www.w3.org/2000/svg" viewBox="0 0 36 36"><defs><style>.cls-1{fill:none;}</style></defs><title>icon_search</title><path class="cls-1" d="M23.25,7.44A11.12,11.12,0,0,0,15.39,4h-.18a11.19,11.19,0,0,0-8,19A11.2,11.2,0,0,0,23,23.26a11.19,11.19,0,0,0,.25-15.82Z"/><path d="M34.16,32.29,25.54,23.4A13.18,13.18,0,0,0,6,5.75,13.18,13.18,0,0,0,15,28.4h.22a13.08,13.08,0,0,0,9-3.54l8.54,8.82a1,1,0,0,0,.72.3,1,1,0,0,0,.69-.28A1,1,0,0,0,34.16,32.29ZM15,26.4A11.18,11.18,0,0,1,4,15,11.18,11.18,0,0,1,15.21,4h.18A11.19,11.19,0,0,1,23,23.26,11.07,11.07,0,0,1,15,26.4Z"/></svg>