<svg id="Calque_1" data-name="Calque 1" xmlns="http://www.w3.org/2000/svg" viewBox="0 0 36 36"><defs><style>.cls-1{fill:none;}.cls-2{fill:#1d1d1b;}</style></defs><title>icon_user</title><path class="cls-1" d="M17.86,20a5.34,5.34,0,0,1-2.19-.49,7.92,7.92,0,0,1-.92,1.36A4.77,4.77,0,0,0,18,22.7,4.68,4.68,0,0,0,21.16,21a7.49,7.49,0,0,1-1-1.46,5.35,5.35,0,0,1-2.24.5Z"/><path class="cls-1" d="M15.82,17.32a3.42,3.42,0,0,0,2,.68h0c2.56,0,4.71-3,4.71-6.5S20.45,5,17.9,5s-4.7,3-4.7,6.5A7,7,0,0,0,15.82,17.32Z"/><path class="cls-1" d="M26.32,23.67c-.61-.17-1.29-.35-2.06-.63a8,8,0,0,1-1.58-.77A6.61,6.61,0,0,1,18,24.7a6.68,6.68,0,0,1-4.75-2.51,7.23,7.23,0,0,1-1.74.86c-.74.27-1.42.45-2,.62-1.89.51-2.75.74-3.38,3A15.7,15.7,0,0,0,17.89,31.7,16.35,16.35,0,0,0,29.7,26.62C29.07,24.4,28.21,24.17,26.32,23.67Z"/><path class="cls-2" d="M31.77,26.67c-.92-3.86-2.78-4.36-4.93-4.93-.6-.16-1.21-.33-1.91-.58a5.5,5.5,0,0,1-3.12-2.77A9.36,9.36,0,0,0,24.6,11.5c0-4.69-3-8.5-6.7-8.5s-6.7,3.81-6.7,8.46A9,9,0,0,0,14,18.37a5.38,5.38,0,0,1-3.16,2.79c-.69.25-1.3.42-1.9.58-2.15.57-4,1.07-4.93,4.93a1,1,0,0,0,.21.88A17.76,17.76,0,0,0,17.69,33.7h.21a18.32,18.32,0,0,0,13.65-6.14A1,1,0,0,0,31.77,26.67ZM21.16,21A4.68,4.68,0,0,1,18,22.7a4.77,4.77,0,0,1-3.25-1.83,7.92,7.92,0,0,0,.92-1.36,5.34,5.34,0,0,0,2.19.49h0a5.35,5.35,0,0,0,2.24-.5A7.49,7.49,0,0,0,21.16,21Zm-8-9.46C13.2,8,15.35,5,17.9,5s4.7,3,4.7,6.5S20.45,18,17.89,18h0a3.42,3.42,0,0,1-2-.68A7,7,0,0,1,13.2,11.5Zm4.69,20.2A15.7,15.7,0,0,1,6.1,26.63c.63-2.22,1.49-2.45,3.38-3,.61-.17,1.29-.35,2-.62a7.23,7.23,0,0,0,1.74-.86A6.68,6.68,0,0,0,18,24.7a6.61,6.61,0,0,0,4.68-2.43,8,8,0,0,0,1.58.77c.77.28,1.45.46,2.06.63,1.89.5,2.75.73,3.38,2.95A16.35,16.35,0,0,1,17.89,31.7Z"/></svg>