<svg id="Calque_1" data-name="Calque 1" xmlns="http://www.w3.org/2000/svg" viewBox="0 0 36 36"><defs><style>.cls-1{fill:none;}</style></defs><title>icon_play</title><polygon class="cls-1" points="13.23 25.58 24.93 17.64 13.5 9.69 13.23 25.58"/><path d="M27.27,16.83,13.1,7l-.09,0a.75.75,0,0,0-.18-.08l-.2,0-.08,0h0l-.09,0-.19,0-.18.07-.15.1-.15.15-.06.06s0,.06,0,.08a1.08,1.08,0,0,0-.08.19,1.29,1.29,0,0,0,0,.19s0,.06,0,.09l-.33,19.7a.44.44,0,0,0,0,.1.63.63,0,0,0,0,.19,1.08,1.08,0,0,0,.08.19s0,.06,0,.09l.08.1.05.05a1,1,0,0,0,.28.19l.05,0a1.3,1.3,0,0,0,.33.07h0a1,1,0,0,0,.34-.07l.11-.05.11-.05,14.5-9.85a1,1,0,0,0,0-1.64Zm-14,8.75L13.5,9.69l11.43,8Z"/></svg>