<svg id="Calque_1" data-name="Calque 1" xmlns="http://www.w3.org/2000/svg" viewBox="0 0 36 36"><title>icon_podcast</title><g id="Groupe_2062" data-name="Groupe 2062"><path id="Tracé_29844" data-name="Tracé 29844" d="M28.34,18V14.56a1.13,1.13,0,1,0-2.26,0V18a7.91,7.91,0,1,1-15.82,0V14.56a1.13,1.13,0,1,0-2.26,0V18a10.2,10.2,0,0,0,9,10.11v4.58h-6.4a.38.38,0,0,0-.38.38v1.5a.38.38,0,0,0,.38.38H25.57a.38.38,0,0,0,.38-.38V33a.38.38,0,0,0-.38-.38H19.3V28.06A10.2,10.2,0,0,0,28.34,18Z"/><path id="Tracé_29845" data-name="Tracé 29845" d="M18.17,3.26a3.39,3.39,0,0,1,3.39,3.39V18a3.39,3.39,0,1,1-6.78,0V6.65a3.39,3.39,0,0,1,3.39-3.39m0-2.26a5.65,5.65,0,0,0-5.65,5.65h0V18a5.65,5.65,0,1,0,11.3,0V6.65A5.65,5.65,0,0,0,18.17,1Z"/></g></svg>