<svg id="Calque_1" data-name="Calque 1" xmlns="http://www.w3.org/2000/svg" viewBox="0 0 36 36"><defs><style>.cls-1{fill:none;}</style></defs><title>icon_map</title><polygon class="cls-1" points="11.6 7.92 3 3.62 3 28.88 11.6 33.18 11.6 7.92"/><polygon class="cls-1" points="22.2 3.62 13.6 7.92 13.6 33.18 22.2 28.88 22.2 3.62"/><rect class="cls-1" x="24.2" y="3" width="8.6" height="25.5"/><path d="M33.8,1H23.2a1,1,0,0,0-.42.1h0L12.6,6.18,2.45,1.11A1,1,0,0,0,1,2V29.5a1,1,0,0,0,.55.89l10.6,5.3a1,1,0,0,0,.9,0L23.44,30.5H33.8a1,1,0,0,0,1-1V2A1,1,0,0,0,33.8,1ZM3,3.62l8.6,4.3V33.18L3,28.88Zm10.6,4.3,8.6-4.3V28.88l-8.6,4.3ZM32.8,28.5H24.2V3h8.6Z"/></svg>