<svg id="Calque_1" data-name="Calque 1" xmlns="http://www.w3.org/2000/svg" viewBox="0 0 36 36"><title>pictogrammes</title><g id="Groupe_2066" data-name="Groupe 2066"><path id="Tracé_29846" data-name="Tracé 29846" d="M5,1H23.61c.23.16.46.33.67.51l8.14,8.12a1.5,1.5,0,0,1,.47,1.15v21.8A2.14,2.14,0,0,1,31,34.9H5.51A2.13,2.13,0,0,1,3.2,33a2.29,2.29,0,0,1,0-.37V3.23A2.11,2.11,0,0,1,4.89,1.06ZM22.29,3.12H6.45a1.34,1.34,0,0,0-.35,0,1.07,1.07,0,0,0-.77,1.2V31.64a1.05,1.05,0,0,0,1,1.16.61.61,0,0,0,.19,0H29.53a1.09,1.09,0,0,0,1.24-.91.86.86,0,0,0,0-.32v-20H23.5a1.08,1.08,0,0,1-1.22-.92,1.61,1.61,0,0,1,0-.31V6.13C22.29,5.14,22.29,4.15,22.29,3.12Zm2.13,6.35h4.74L24.42,4.73Z"/><path id="Tracé_29847" data-name="Tracé 29847" d="M18.08,22.19h7.35a1.05,1.05,0,0,1,.22,2.09,2.61,2.61,0,0,1-.4,0H10.8a2.22,2.22,0,0,1-.37,0,1,1,0,0,1,.23-2.08Z"/><path id="Tracé_29848" data-name="Tracé 29848" d="M18,28.54H10.77a1.05,1.05,0,0,1-1.18-.94,1.07,1.07,0,0,1,.94-1.18,1,1,0,0,1,.24,0H25.34a1.07,1.07,0,0,1,.25,2.12,1,1,0,0,1-.25,0Z"/><path id="Tracé_29849" data-name="Tracé 29849" d="M18.05,18h7.17a2,2,0,0,1,.43,0,1,1,0,0,1-.19,2.08H10.73a1.06,1.06,0,0,1-.18-2.11.54.54,0,0,1,.18,0h7.32Z"/><path id="Tracé_29850" data-name="Tracé 29850" d="M13.81,13.72h3a1.06,1.06,0,0,1,1.18.92,1.07,1.07,0,0,1-.92,1.19H10.73a1.06,1.06,0,1,1-.18-2.11h3.26Z"/></g></svg>