<svg id="Calque_1" data-name="Calque 1" xmlns="http://www.w3.org/2000/svg" viewBox="0 0 36 36"><defs><style>.cls-1{fill:none;stroke:#000;stroke-linecap:round;stroke-linejoin:round;stroke-width:2px;}</style></defs><title>pictogrammes</title><path id="Tracé_223" data-name="Tracé 223" class="cls-1" d="M8.4,33.9H2.7a.68.68,0,0,1-.7-.67V18.7a.68.68,0,0,1,.67-.7H8.4a.67.67,0,0,1,.6.7V33.3C9.1,33.6,8.8,33.9,8.4,33.9Z"/><path id="Tracé_224" data-name="Tracé 224" class="cls-1" d="M18.8,33.9H13.5a.9.9,0,0,1-.9-.9h0V6.7a.9.9,0,0,1,.9-.9h5.3a.9.9,0,0,1,.9.9V33a.8.8,0,0,1-.69.9Z"/><path id="Tracé_225" data-name="Tracé 225" class="cls-1" d="M29.6,33.9H24.1a.86.86,0,0,1-.8-.8V12.7a.86.86,0,0,1,.8-.8h5.5a.86.86,0,0,1,.8.8V33.2a.72.72,0,0,1-.72.71Z"/><path id="Tracé_226" data-name="Tracé 226" class="cls-1" d="M2,2V33.9H34.8"/></svg>