<svg id="Calque_1" data-name="Calque 1" xmlns="http://www.w3.org/2000/svg" viewBox="0 0 36 36"><defs><style>.cls-1{fill:none;stroke:#000;stroke-linecap:round;stroke-linejoin:round;stroke-width:2px;}</style></defs><title>pictogrammes</title><g id="Groupe_338" data-name="Groupe 338"><path id="Tracé_279" data-name="Tracé 279" class="cls-1" d="M10.34,15.92l-4.9,4.9c-1.8,1.79-4.3,6.5-.3,10.6,3.7,3.7,8.1,2.2,10.7-.4l4.8-4.8c2.6-2.61,2.9-7.5.4-10a5.45,5.45,0,0,0-2.7-1.9"/><path id="Tracé_280" data-name="Tracé 280" class="cls-1" d="M26.44,20.42l4.8-4.8c1.7-1.7,4.2-6.5.3-10.4-3.7-3.7-8-2.2-10.6.4l-4.7,4.7c-2.6,2.6-2.9,7.5-.4,9.9a6.33,6.33,0,0,0,2.7,1.89"/></g></svg>